<svg width="1220.5" height="72.001" viewBox="0 0 1220.5 72.001" xmlns="http://www.w3.org/2000/svg"><g id="svgGroup" stroke-linecap="round" fill-rule="evenodd" font-size="9pt" stroke="#000" stroke-width="0.25mm" fill="#000" style="stroke:#000;stroke-width:0.25mm;fill:#000"><path d="M 0 71.001 L 11.4 1.001 L 26.3 1.001 L 37.7 71.001 L 26.7 71.001 L 24.7 57.101 L 24.7 57.301 L 12.2 57.301 L 10.2 71.001 L 0 71.001 Z M 13.5 47.801 L 23.4 47.801 L 18.5 13.201 L 18.3 13.201 L 13.5 47.801 Z" id="0" vector-effect="non-scaling-stroke"/><path d="M 40.8 54.401 L 40.8 50.401 L 51.2 50.401 L 51.2 55.201 Q 51.2 61.207 55.647 61.908 A 8.05 8.05 0 0 0 56.9 62.001 Q 59.7 62.001 61.15 60.351 Q 62.538 58.771 62.597 55.314 A 18.22 18.22 0 0 0 62.6 55.001 A 16.438 16.438 0 0 0 62.068 50.742 A 13.651 13.651 0 0 0 60.6 47.251 A 19.081 19.081 0 0 0 59.042 45.055 Q 56.934 42.45 53.2 39.201 A 72.472 72.472 0 0 1 49.35 35.563 Q 45.682 31.814 43.825 28.573 A 20.769 20.769 0 0 1 43.7 28.351 A 21.525 21.525 0 0 1 41.08 19.461 A 26.199 26.199 0 0 1 41 17.401 A 26.379 26.379 0 0 1 41.452 12.358 Q 42.027 9.407 43.334 7.11 A 13.862 13.862 0 0 1 45.2 4.551 A 13.5 13.5 0 0 1 51.73 0.695 Q 53.917 0.098 56.533 0.014 A 27.056 27.056 0 0 1 57.4 0.001 Q 65.3 0.001 69.35 4.551 Q 73.4 9.101 73.4 17.601 L 73.4 20.501 L 63 20.501 L 63 16.901 Q 63 13.488 61.742 11.827 A 4.111 4.111 0 0 0 61.6 11.651 A 4.506 4.506 0 0 0 59.136 10.179 A 7.037 7.037 0 0 0 57.5 10.001 Q 52 10.001 52 16.701 Q 52 20.501 54.05 23.801 Q 55.868 26.728 60.322 30.756 A 82.526 82.526 0 0 0 61.5 31.801 Q 68.4 37.801 71 42.701 Q 73.6 47.601 73.6 54.201 Q 73.6 60.335 71.438 64.434 A 13.911 13.911 0 0 1 69.35 67.401 A 13.66 13.66 0 0 1 62.754 71.295 Q 60.535 71.901 57.88 71.987 A 27.431 27.431 0 0 1 57 72.001 A 22.4 22.4 0 0 1 52.275 71.534 Q 47.687 70.543 44.9 67.451 Q 41.441 63.612 40.9 56.961 A 31.618 31.618 0 0 1 40.8 54.401 Z" id="1" vector-effect="non-scaling-stroke"/><path d="M 79.9 71.001 L 79.9 1.001 L 90.9 1.001 L 90.9 29.501 L 102.7 29.501 L 102.7 1.001 L 113.7 1.001 L 113.7 71.001 L 102.7 71.001 L 102.7 39.501 L 90.9 39.501 L 90.9 71.001 L 79.9 71.001 Z" id="2" vector-effect="non-scaling-stroke"/><path d="M 121.9 71.001 L 121.9 1.001 L 132.9 1.001 L 132.9 71.001 L 121.9 71.001 Z" id="3" vector-effect="non-scaling-stroke"/><path d="M 141.1 71.001 L 141.1 1.001 L 157.4 1.001 A 29.066 29.066 0 0 1 161.817 1.313 Q 164.144 1.672 165.991 2.442 A 11.489 11.489 0 0 1 169.8 4.951 Q 173.7 8.901 173.7 17.101 L 173.7 21.401 A 25.259 25.259 0 0 1 173.278 26.211 Q 172.763 28.858 171.62 30.807 A 10.176 10.176 0 0 1 166.5 35.201 L 166.5 35.401 A 9.225 9.225 0 0 1 169.734 37.075 A 8.631 8.631 0 0 1 172.15 40.301 A 16.431 16.431 0 0 1 173.155 43.427 Q 173.8 46.326 173.8 50.201 L 173.8 62.501 Q 173.8 65.434 173.991 67.268 A 21.93 21.93 0 0 0 174 67.351 A 12.134 12.134 0 0 0 174.951 70.888 A 13.583 13.583 0 0 0 175 71.001 L 163.8 71.001 A 18.152 18.152 0 0 1 163.275 69.251 A 13.945 13.945 0 0 1 163 67.801 A 14.955 14.955 0 0 1 162.914 66.917 Q 162.805 65.413 162.8 62.666 A 147.151 147.151 0 0 1 162.8 62.401 L 162.8 49.601 Q 162.8 44.801 161.25 42.901 A 4.556 4.556 0 0 0 159.383 41.569 Q 158.615 41.258 157.645 41.117 A 12.174 12.174 0 0 0 155.9 41.001 L 152.1 41.001 L 152.1 71.001 L 141.1 71.001 Z M 152.1 31.001 L 156.1 31.001 Q 159.4 31.001 161.05 29.301 Q 162.7 27.601 162.7 23.601 L 162.7 18.201 Q 162.7 14.816 161.629 13.097 A 4.26 4.26 0 0 0 161.35 12.701 A 4.239 4.239 0 0 0 159.2 11.281 Q 158.48 11.062 157.603 11.014 A 9.216 9.216 0 0 0 157.1 11.001 L 152.1 11.001 L 152.1 31.001 Z" id="4" vector-effect="non-scaling-stroke"/><path d="M 178.5 71.001 L 189.9 1.001 L 204.8 1.001 L 216.2 71.001 L 205.2 71.001 L 203.2 57.101 L 203.2 57.301 L 190.7 57.301 L 188.7 71.001 L 178.5 71.001 Z M 192 47.801 L 201.9 47.801 L 197 13.201 L 196.8 13.201 L 192 47.801 Z" id="5" vector-effect="non-scaling-stroke"/><path d="M 237.5 71.001 L 237.5 1.001 L 266.6 1.001 L 266.6 11.001 L 248.5 11.001 L 248.5 30.501 L 262.7 30.501 L 262.7 40.501 L 248.5 40.501 L 248.5 71.001 L 237.5 71.001 Z" id="7" vector-effect="non-scaling-stroke"/><path d="M 271.9 71.001 L 271.9 1.001 L 301.9 1.001 L 301.9 11.001 L 282.9 11.001 L 282.9 29.501 L 298 29.501 L 298 39.501 L 282.9 39.501 L 282.9 61.001 L 301.9 61.001 L 301.9 71.001 L 271.9 71.001 Z" id="8" vector-effect="non-scaling-stroke"/><path d="M 308.2 71.001 L 308.2 1.001 L 324.5 1.001 A 29.066 29.066 0 0 1 328.917 1.313 Q 331.244 1.672 333.091 2.442 A 11.489 11.489 0 0 1 336.9 4.951 Q 340.8 8.901 340.8 17.101 L 340.8 21.401 A 25.259 25.259 0 0 1 340.378 26.211 Q 339.863 28.858 338.72 30.807 A 10.176 10.176 0 0 1 333.6 35.201 L 333.6 35.401 A 9.225 9.225 0 0 1 336.834 37.075 A 8.631 8.631 0 0 1 339.25 40.301 A 16.431 16.431 0 0 1 340.255 43.427 Q 340.9 46.326 340.9 50.201 L 340.9 62.501 Q 340.9 65.434 341.091 67.268 A 21.93 21.93 0 0 0 341.1 67.351 A 12.134 12.134 0 0 0 342.051 70.888 A 13.583 13.583 0 0 0 342.1 71.001 L 330.9 71.001 A 18.152 18.152 0 0 1 330.375 69.251 A 13.945 13.945 0 0 1 330.1 67.801 A 14.955 14.955 0 0 1 330.014 66.917 Q 329.905 65.413 329.9 62.666 A 147.151 147.151 0 0 1 329.9 62.401 L 329.9 49.601 Q 329.9 44.801 328.35 42.901 A 4.556 4.556 0 0 0 326.483 41.569 Q 325.715 41.258 324.745 41.117 A 12.174 12.174 0 0 0 323 41.001 L 319.2 41.001 L 319.2 71.001 L 308.2 71.001 Z M 319.2 31.001 L 323.2 31.001 Q 326.5 31.001 328.15 29.301 Q 329.8 27.601 329.8 23.601 L 329.8 18.201 Q 329.8 14.816 328.729 13.097 A 4.26 4.26 0 0 0 328.45 12.701 A 4.239 4.239 0 0 0 326.3 11.281 Q 325.58 11.062 324.703 11.014 A 9.216 9.216 0 0 0 324.2 11.001 L 319.2 11.001 L 319.2 31.001 Z" id="9" vector-effect="non-scaling-stroke"/><path d="M 348.5 71.001 L 348.5 1.001 L 362.3 1.001 L 373 42.901 L 373.2 42.901 L 373.2 1.001 L 383 1.001 L 383 71.001 L 371.7 71.001 L 358.5 19.901 L 358.3 19.901 L 358.3 71.001 L 348.5 71.001 Z" id="10" vector-effect="non-scaling-stroke"/><path d="M 388.3 71.001 L 399.7 1.001 L 414.6 1.001 L 426 71.001 L 415 71.001 L 413 57.101 L 413 57.301 L 400.5 57.301 L 398.5 71.001 L 388.3 71.001 Z M 401.8 47.801 L 411.7 47.801 L 406.8 13.201 L 406.6 13.201 L 401.8 47.801 Z" id="11" vector-effect="non-scaling-stroke"/><path d="M 431.3 71.001 L 431.3 1.001 L 445.1 1.001 L 455.8 42.901 L 456 42.901 L 456 1.001 L 465.8 1.001 L 465.8 71.001 L 454.5 71.001 L 441.3 19.901 L 441.1 19.901 L 441.1 71.001 L 431.3 71.001 Z" id="12" vector-effect="non-scaling-stroke"/><path d="M 474 71.001 L 474 1.001 L 490.8 1.001 Q 496.53 1.001 500.258 3.149 A 12.152 12.152 0 0 1 503.1 5.401 A 14.033 14.033 0 0 1 506.143 10.725 Q 506.837 12.864 507.075 15.458 A 31.07 31.07 0 0 1 507.2 18.301 L 507.2 53.701 A 28.154 28.154 0 0 1 506.8 58.613 Q 506.325 61.288 505.287 63.4 A 13.197 13.197 0 0 1 503.1 66.601 A 12.931 12.931 0 0 1 497.389 70.097 Q 495.324 70.747 492.823 70.929 A 27.789 27.789 0 0 1 490.8 71.001 L 474 71.001 Z M 485 61.001 L 490.6 61.001 Q 493.044 61.001 494.464 59.689 A 4.571 4.571 0 0 0 494.75 59.401 A 4.717 4.717 0 0 0 495.648 57.883 Q 496.165 56.515 496.198 54.48 A 17.299 17.299 0 0 0 496.2 54.201 L 496.2 17.801 Q 496.2 14.201 494.75 12.601 A 4.697 4.697 0 0 0 492.309 11.19 Q 491.54 11.004 490.629 11.001 A 9.11 9.11 0 0 0 490.6 11.001 L 485 11.001 L 485 61.001 Z" id="13" vector-effect="non-scaling-stroke"/><path d="M 513.8 54.401 L 513.8 17.601 A 26.391 26.391 0 0 1 514.263 12.497 Q 514.855 9.494 516.206 7.16 A 14.01 14.01 0 0 1 518.1 4.601 Q 522.183 0.232 529.694 0.012 A 27.536 27.536 0 0 1 530.5 0.001 A 22.814 22.814 0 0 1 535.406 0.496 Q 538.608 1.201 540.98 2.91 A 13.123 13.123 0 0 1 542.9 4.601 Q 546.713 8.68 547.145 15.746 A 30.402 30.402 0 0 1 547.2 17.601 L 547.2 54.401 A 26.391 26.391 0 0 1 546.737 59.504 Q 546.145 62.508 544.794 64.841 A 14.01 14.01 0 0 1 542.9 67.401 Q 538.817 71.769 531.306 71.989 A 27.536 27.536 0 0 1 530.5 72.001 A 22.814 22.814 0 0 1 525.594 71.505 Q 522.392 70.8 520.02 69.091 A 13.123 13.123 0 0 1 518.1 67.401 Q 514.287 63.322 513.855 56.255 A 30.402 30.402 0 0 1 513.8 54.401 Z M 536.2 55.101 L 536.2 16.901 A 12.201 12.201 0 0 0 535.956 14.339 Q 535.02 10.001 530.5 10.001 A 6.668 6.668 0 0 0 528.04 10.419 Q 525.136 11.566 524.835 15.863 A 14.845 14.845 0 0 0 524.8 16.901 L 524.8 55.101 A 12.201 12.201 0 0 0 525.044 57.662 Q 525.98 62.001 530.5 62.001 A 6.668 6.668 0 0 0 532.96 61.583 Q 535.864 60.435 536.165 56.138 A 14.845 14.845 0 0 0 536.2 55.101 Z" id="14" vector-effect="non-scaling-stroke"/><path d="M 582.6 53.601 L 582.6 39.901 L 569.2 39.901 L 569.2 32.101 L 582.6 32.101 L 582.6 18.601 L 590.4 18.601 L 590.4 32.101 L 603.8 32.101 L 603.8 39.901 L 590.4 39.901 L 590.4 53.601 L 582.6 53.601 Z" id="16" vector-effect="non-scaling-stroke"/><path d="M 626.6 71.001 L 626.6 1.001 L 655.7 1.001 L 655.7 11.001 L 637.6 11.001 L 637.6 30.501 L 651.8 30.501 L 651.8 40.501 L 637.6 40.501 L 637.6 71.001 L 626.6 71.001 Z" id="18" vector-effect="non-scaling-stroke"/><path d="M 654.9 71.001 L 666.3 1.001 L 681.2 1.001 L 692.6 71.001 L 681.6 71.001 L 679.6 57.101 L 679.6 57.301 L 667.1 57.301 L 665.1 71.001 L 654.9 71.001 Z M 668.4 47.801 L 678.3 47.801 L 673.4 13.201 L 673.2 13.201 L 668.4 47.801 Z" id="19" vector-effect="non-scaling-stroke"/><path d="M 695.7 54.401 L 695.7 50.401 L 706.1 50.401 L 706.1 55.201 Q 706.1 61.207 710.547 61.908 A 8.05 8.05 0 0 0 711.8 62.001 Q 714.6 62.001 716.05 60.351 Q 717.438 58.771 717.497 55.314 A 18.22 18.22 0 0 0 717.5 55.001 A 16.438 16.438 0 0 0 716.968 50.742 A 13.651 13.651 0 0 0 715.5 47.251 A 19.081 19.081 0 0 0 713.942 45.055 Q 711.834 42.45 708.1 39.201 A 72.472 72.472 0 0 1 704.25 35.563 Q 700.582 31.814 698.725 28.573 A 20.769 20.769 0 0 1 698.6 28.351 A 21.525 21.525 0 0 1 695.98 19.461 A 26.199 26.199 0 0 1 695.9 17.401 A 26.379 26.379 0 0 1 696.352 12.358 Q 696.927 9.407 698.234 7.11 A 13.862 13.862 0 0 1 700.1 4.551 A 13.5 13.5 0 0 1 706.63 0.695 Q 708.817 0.098 711.433 0.014 A 27.056 27.056 0 0 1 712.3 0.001 Q 720.2 0.001 724.25 4.551 Q 728.3 9.101 728.3 17.601 L 728.3 20.501 L 717.9 20.501 L 717.9 16.901 Q 717.9 13.488 716.642 11.827 A 4.111 4.111 0 0 0 716.5 11.651 A 4.506 4.506 0 0 0 714.036 10.179 A 7.037 7.037 0 0 0 712.4 10.001 Q 706.9 10.001 706.9 16.701 Q 706.9 20.501 708.95 23.801 Q 710.768 26.728 715.222 30.756 A 82.526 82.526 0 0 0 716.4 31.801 Q 723.3 37.801 725.9 42.701 Q 728.5 47.601 728.5 54.201 Q 728.5 60.335 726.338 64.434 A 13.911 13.911 0 0 1 724.25 67.401 A 13.66 13.66 0 0 1 717.654 71.295 Q 715.435 71.901 712.78 71.987 A 27.431 27.431 0 0 1 711.9 72.001 A 22.4 22.4 0 0 1 707.175 71.534 Q 702.587 70.543 699.8 67.451 Q 696.341 63.612 695.8 56.961 A 31.618 31.618 0 0 1 695.7 54.401 Z" id="20" vector-effect="non-scaling-stroke"/><path d="M 734.8 71.001 L 734.8 1.001 L 745.8 1.001 L 745.8 29.501 L 757.6 29.501 L 757.6 1.001 L 768.6 1.001 L 768.6 71.001 L 757.6 71.001 L 757.6 39.501 L 745.8 39.501 L 745.8 71.001 L 734.8 71.001 Z" id="21" vector-effect="non-scaling-stroke"/><path d="M 776.8 71.001 L 776.8 1.001 L 787.8 1.001 L 787.8 71.001 L 776.8 71.001 Z" id="22" vector-effect="non-scaling-stroke"/><path d="M 795.2 54.401 L 795.2 17.601 A 26.391 26.391 0 0 1 795.663 12.497 Q 796.255 9.494 797.606 7.16 A 14.01 14.01 0 0 1 799.5 4.601 Q 803.583 0.232 811.094 0.012 A 27.536 27.536 0 0 1 811.9 0.001 A 22.814 22.814 0 0 1 816.806 0.496 Q 820.008 1.201 822.38 2.91 A 13.123 13.123 0 0 1 824.3 4.601 Q 828.113 8.68 828.545 15.746 A 30.402 30.402 0 0 1 828.6 17.601 L 828.6 54.401 A 26.391 26.391 0 0 1 828.137 59.504 Q 827.545 62.508 826.194 64.841 A 14.01 14.01 0 0 1 824.3 67.401 Q 820.217 71.769 812.706 71.989 A 27.536 27.536 0 0 1 811.9 72.001 A 22.814 22.814 0 0 1 806.994 71.505 Q 803.792 70.8 801.42 69.091 A 13.123 13.123 0 0 1 799.5 67.401 Q 795.687 63.322 795.255 56.255 A 30.402 30.402 0 0 1 795.2 54.401 Z M 817.6 55.101 L 817.6 16.901 A 12.201 12.201 0 0 0 817.356 14.339 Q 816.42 10.001 811.9 10.001 A 6.668 6.668 0 0 0 809.44 10.419 Q 806.536 11.566 806.235 15.863 A 14.845 14.845 0 0 0 806.2 16.901 L 806.2 55.101 A 12.201 12.201 0 0 0 806.444 57.662 Q 807.38 62.001 811.9 62.001 A 6.668 6.668 0 0 0 814.36 61.583 Q 817.264 60.435 817.565 56.138 A 14.845 14.845 0 0 0 817.6 55.101 Z" id="23" vector-effect="non-scaling-stroke"/><path d="M 836 71.001 L 836 1.001 L 849.8 1.001 L 860.5 42.901 L 860.7 42.901 L 860.7 1.001 L 870.5 1.001 L 870.5 71.001 L 859.2 71.001 L 846 19.901 L 845.8 19.901 L 845.8 71.001 L 836 71.001 Z" id="24" vector-effect="non-scaling-stroke"/><path d="M 894.7 71.001 L 894.7 1.001 L 911.5 1.001 Q 917.23 1.001 920.958 3.149 A 12.152 12.152 0 0 1 923.8 5.401 A 14.033 14.033 0 0 1 926.843 10.725 Q 927.537 12.864 927.775 15.458 A 31.07 31.07 0 0 1 927.9 18.301 L 927.9 53.701 A 28.154 28.154 0 0 1 927.5 58.613 Q 927.025 61.288 925.987 63.4 A 13.197 13.197 0 0 1 923.8 66.601 A 12.931 12.931 0 0 1 918.089 70.097 Q 916.024 70.747 913.523 70.929 A 27.789 27.789 0 0 1 911.5 71.001 L 894.7 71.001 Z M 905.7 61.001 L 911.3 61.001 Q 913.744 61.001 915.164 59.689 A 4.571 4.571 0 0 0 915.45 59.401 A 4.717 4.717 0 0 0 916.348 57.883 Q 916.865 56.515 916.898 54.48 A 17.299 17.299 0 0 0 916.9 54.201 L 916.9 17.801 Q 916.9 14.201 915.45 12.601 A 4.697 4.697 0 0 0 913.009 11.19 Q 912.24 11.004 911.329 11.001 A 9.11 9.11 0 0 0 911.3 11.001 L 905.7 11.001 L 905.7 61.001 Z" id="26" vector-effect="non-scaling-stroke"/><path d="M 935.3 71.001 L 935.3 1.001 L 965.3 1.001 L 965.3 11.001 L 946.3 11.001 L 946.3 29.501 L 961.4 29.501 L 961.4 39.501 L 946.3 39.501 L 946.3 61.001 L 965.3 61.001 L 965.3 71.001 L 935.3 71.001 Z" id="27" vector-effect="non-scaling-stroke"/><path d="M 969.9 54.401 L 969.9 50.401 L 980.3 50.401 L 980.3 55.201 Q 980.3 61.207 984.747 61.908 A 8.05 8.05 0 0 0 986 62.001 Q 988.8 62.001 990.25 60.351 Q 991.638 58.771 991.697 55.314 A 18.22 18.22 0 0 0 991.7 55.001 A 16.438 16.438 0 0 0 991.168 50.742 A 13.651 13.651 0 0 0 989.7 47.251 A 19.081 19.081 0 0 0 988.142 45.055 Q 986.034 42.45 982.3 39.201 A 72.472 72.472 0 0 1 978.45 35.563 Q 974.782 31.814 972.925 28.573 A 20.769 20.769 0 0 1 972.8 28.351 A 21.525 21.525 0 0 1 970.18 19.461 A 26.199 26.199 0 0 1 970.1 17.401 A 26.379 26.379 0 0 1 970.552 12.358 Q 971.127 9.407 972.434 7.11 A 13.862 13.862 0 0 1 974.3 4.551 A 13.5 13.5 0 0 1 980.83 0.695 Q 983.017 0.098 985.633 0.014 A 27.056 27.056 0 0 1 986.5 0.001 Q 994.4 0.001 998.45 4.551 Q 1002.5 9.101 1002.5 17.601 L 1002.5 20.501 L 992.1 20.501 L 992.1 16.901 Q 992.1 13.488 990.842 11.827 A 4.111 4.111 0 0 0 990.7 11.651 A 4.506 4.506 0 0 0 988.236 10.179 A 7.037 7.037 0 0 0 986.6 10.001 Q 981.1 10.001 981.1 16.701 Q 981.1 20.501 983.15 23.801 Q 984.968 26.728 989.422 30.756 A 82.526 82.526 0 0 0 990.6 31.801 Q 997.5 37.801 1000.1 42.701 Q 1002.7 47.601 1002.7 54.201 Q 1002.7 60.335 1000.538 64.434 A 13.911 13.911 0 0 1 998.45 67.401 A 13.66 13.66 0 0 1 991.854 71.295 Q 989.635 71.901 986.98 71.987 A 27.431 27.431 0 0 1 986.1 72.001 A 22.4 22.4 0 0 1 981.375 71.534 Q 976.787 70.543 974 67.451 Q 970.541 63.612 970 56.961 A 31.618 31.618 0 0 1 969.9 54.401 Z" id="28" vector-effect="non-scaling-stroke"/><path d="M 1009 71.001 L 1009 1.001 L 1020 1.001 L 1020 71.001 L 1009 71.001 Z" id="29" vector-effect="non-scaling-stroke"/><path d="M 1027.4 54.401 L 1027.4 17.601 A 27.602 27.602 0 0 1 1027.831 12.561 Q 1028.36 9.718 1029.537 7.485 A 13.766 13.766 0 0 1 1031.6 4.551 A 13.5 13.5 0 0 1 1038.13 0.695 Q 1040.317 0.098 1042.933 0.014 A 27.056 27.056 0 0 1 1043.8 0.001 A 22.43 22.43 0 0 1 1048.641 0.491 Q 1051.756 1.179 1054.062 2.836 A 12.768 12.768 0 0 1 1056 4.551 Q 1059.564 8.412 1060.104 15.118 A 30.974 30.974 0 0 1 1060.2 17.601 L 1060.2 23.601 L 1049.8 23.601 L 1049.8 16.901 A 12.201 12.201 0 0 0 1049.556 14.339 Q 1048.62 10.001 1044.1 10.001 A 6.668 6.668 0 0 0 1041.64 10.419 Q 1038.736 11.566 1038.435 15.863 A 14.845 14.845 0 0 0 1038.4 16.901 L 1038.4 55.201 Q 1038.4 61.207 1042.847 61.908 A 8.05 8.05 0 0 0 1044.1 62.001 A 6.789 6.789 0 0 0 1046.527 61.602 Q 1049.493 60.471 1049.771 56.133 A 14.576 14.576 0 0 0 1049.8 55.201 L 1049.8 41.501 L 1044.3 41.501 L 1044.3 31.501 L 1060.2 31.501 L 1060.2 54.401 A 27.602 27.602 0 0 1 1059.769 59.441 Q 1059.24 62.284 1058.063 64.517 A 13.766 13.766 0 0 1 1056 67.451 A 13.5 13.5 0 0 1 1049.47 71.306 Q 1047.283 71.903 1044.667 71.987 A 27.056 27.056 0 0 1 1043.8 72.001 A 22.43 22.43 0 0 1 1038.959 71.511 Q 1035.844 70.822 1033.538 69.165 A 12.768 12.768 0 0 1 1031.6 67.451 Q 1028.036 63.589 1027.496 56.883 A 30.974 30.974 0 0 1 1027.4 54.401 Z" id="30" vector-effect="non-scaling-stroke"/><path d="M 1067.3 71.001 L 1067.3 1.001 L 1081.1 1.001 L 1091.8 42.901 L 1092 42.901 L 1092 1.001 L 1101.8 1.001 L 1101.8 71.001 L 1090.5 71.001 L 1077.3 19.901 L 1077.1 19.901 L 1077.1 71.001 L 1067.3 71.001 Z" id="31" vector-effect="non-scaling-stroke"/><path d="M 1110 71.001 L 1110 1.001 L 1126.3 1.001 A 29.066 29.066 0 0 1 1130.717 1.313 Q 1133.044 1.672 1134.891 2.442 A 11.489 11.489 0 0 1 1138.7 4.951 Q 1142.6 8.901 1142.6 17.101 L 1142.6 21.401 A 25.259 25.259 0 0 1 1142.178 26.211 Q 1141.663 28.858 1140.52 30.807 A 10.176 10.176 0 0 1 1135.4 35.201 L 1135.4 35.401 A 9.225 9.225 0 0 1 1138.634 37.075 A 8.631 8.631 0 0 1 1141.05 40.301 A 16.431 16.431 0 0 1 1142.055 43.427 Q 1142.7 46.326 1142.7 50.201 L 1142.7 62.501 Q 1142.7 65.434 1142.891 67.268 A 21.93 21.93 0 0 0 1142.9 67.351 A 12.134 12.134 0 0 0 1143.851 70.888 A 13.583 13.583 0 0 0 1143.9 71.001 L 1132.7 71.001 A 18.152 18.152 0 0 1 1132.175 69.251 A 13.945 13.945 0 0 1 1131.9 67.801 A 14.955 14.955 0 0 1 1131.814 66.917 Q 1131.705 65.413 1131.7 62.666 A 147.151 147.151 0 0 1 1131.7 62.401 L 1131.7 49.601 Q 1131.7 44.801 1130.15 42.901 A 4.556 4.556 0 0 0 1128.283 41.569 Q 1127.515 41.258 1126.545 41.117 A 12.174 12.174 0 0 0 1124.8 41.001 L 1121 41.001 L 1121 71.001 L 1110 71.001 Z M 1121 31.001 L 1125 31.001 Q 1128.3 31.001 1129.95 29.301 Q 1131.6 27.601 1131.6 23.601 L 1131.6 18.201 Q 1131.6 14.816 1130.529 13.097 A 4.26 4.26 0 0 0 1130.25 12.701 A 4.239 4.239 0 0 0 1128.1 11.281 Q 1127.38 11.062 1126.503 11.014 A 9.216 9.216 0 0 0 1126 11.001 L 1121 11.001 L 1121 31.001 Z" id="32" vector-effect="non-scaling-stroke"/><path d="M 1150.3 71.001 L 1150.3 1.001 L 1180.3 1.001 L 1180.3 11.001 L 1161.3 11.001 L 1161.3 29.501 L 1176.4 29.501 L 1176.4 39.501 L 1161.3 39.501 L 1161.3 61.001 L 1180.3 61.001 L 1180.3 71.001 L 1150.3 71.001 Z" id="33" vector-effect="non-scaling-stroke"/><path d="M 1186.6 71.001 L 1186.6 1.001 L 1202.9 1.001 A 29.066 29.066 0 0 1 1207.317 1.313 Q 1209.644 1.672 1211.491 2.442 A 11.489 11.489 0 0 1 1215.3 4.951 Q 1219.2 8.901 1219.2 17.101 L 1219.2 21.401 A 25.259 25.259 0 0 1 1218.778 26.211 Q 1218.263 28.858 1217.12 30.807 A 10.176 10.176 0 0 1 1212 35.201 L 1212 35.401 A 9.225 9.225 0 0 1 1215.234 37.075 A 8.631 8.631 0 0 1 1217.65 40.301 A 16.431 16.431 0 0 1 1218.655 43.427 Q 1219.3 46.326 1219.3 50.201 L 1219.3 62.501 Q 1219.3 65.434 1219.491 67.268 A 21.93 21.93 0 0 0 1219.5 67.351 A 12.134 12.134 0 0 0 1220.451 70.888 A 13.583 13.583 0 0 0 1220.5 71.001 L 1209.3 71.001 A 18.152 18.152 0 0 1 1208.775 69.251 A 13.945 13.945 0 0 1 1208.5 67.801 A 14.955 14.955 0 0 1 1208.414 66.917 Q 1208.305 65.413 1208.3 62.666 A 147.151 147.151 0 0 1 1208.3 62.401 L 1208.3 49.601 Q 1208.3 44.801 1206.75 42.901 A 4.556 4.556 0 0 0 1204.883 41.569 Q 1204.115 41.258 1203.145 41.117 A 12.174 12.174 0 0 0 1201.4 41.001 L 1197.6 41.001 L 1197.6 71.001 L 1186.6 71.001 Z M 1197.6 31.001 L 1201.6 31.001 Q 1204.9 31.001 1206.55 29.301 Q 1208.2 27.601 1208.2 23.601 L 1208.2 18.201 Q 1208.2 14.816 1207.129 13.097 A 4.26 4.26 0 0 0 1206.85 12.701 A 4.239 4.239 0 0 0 1204.7 11.281 Q 1203.98 11.062 1203.103 11.014 A 9.216 9.216 0 0 0 1202.6 11.001 L 1197.6 11.001 L 1197.6 31.001 Z" id="34" vector-effect="non-scaling-stroke"/></g></svg>